<svg width="375" height="812" viewBox="0 0 375 812" fill="none" xmlns="http://www.w3.org/2000/svg">
<g clip-path="url(#clip0_61505_53)">
<path d="M375 0H0V812H375V0Z" fill="#09090A"/>
<path d="M278 -201C112.315 -201 -22 -66.6854 -22 99C-22 264.685 112.315 399 278 399C443.685 399 578 264.685 578 99C578 -66.6854 443.685 -201 278 -201Z" fill="url(#paint0_radial_61505_53)"/>
<path d="M98 -201C-67.6854 -201 -202 -66.6854 -202 99C-202 264.685 -67.6854 399 98 399C263.685 399 398 264.685 398 99C398 -66.6854 263.685 -201 98 -201Z" fill="url(#paint1_radial_61505_53)"/>
<g opacity="0.9">
<mask id="mask0_61505_53" style="mask-type:alpha" maskUnits="userSpaceOnUse" x="0" y="0" width="375" height="812">
<g opacity="0.9">
<path opacity="0.9" d="M375 0H0V812H375V0Z" fill="#202024"/>
</g>
</mask>
<g mask="url(#mask0_61505_53)">
<g opacity="0.9">
<path opacity="0.9" d="M375 168.101V-310.699L187.478 -418.486L-0.0446777 -310.699V168.101L187.478 275.894L375 168.101Z" fill="url(#paint2_linear_61505_53)"/>
<g style="mix-blend-mode:luminosity" opacity="0.4">
<path style="mix-blend-mode:luminosity" opacity="0.4" d="M1.83661 61.3931V168.797L95.1275 222.505L188.418 168.797V61.3931L95.1275 7.68579L1.83661 61.3931Z" fill="url(#paint3_linear_61505_53)"/>
<path style="mix-blend-mode:luminosity" opacity="0.4" d="M1.83661 -46.0166V61.3877L95.1275 115.095L188.418 61.3877V-46.0166L95.1275 -99.7239L1.83661 -46.0166Z" fill="url(#paint4_linear_61505_53)"/>
<path style="mix-blend-mode:luminosity" opacity="0.4" d="M281.709 -99.6961V7.70825L188.418 61.4155L95.1274 7.70825V-99.6961L188.418 -153.403L281.709 -99.6961Z" fill="url(#paint5_linear_61505_53)"/>
<path style="mix-blend-mode:luminosity" opacity="0.4" d="M188.418 168.797V61.3927L281.709 7.68542L375 61.3927V168.797L281.709 222.504L188.418 168.797Z" fill="url(#paint6_linear_61505_53)"/>
<path style="mix-blend-mode:luminosity" opacity="0.4" d="M375 -46.0166V61.3877L281.709 115.095L188.418 61.3877V-46.0166L281.709 -99.7239L375 -46.0166Z" fill="url(#paint7_linear_61505_53)"/>
<path style="mix-blend-mode:luminosity" opacity="0.4" d="M281.709 222.527V115.123L188.418 61.4155L95.1274 115.123V222.527L188.418 276.234L281.709 222.527Z" fill="url(#paint8_linear_61505_53)"/>
</g>
</g>
</g>
</g>
</g>
<defs>
<radialGradient id="paint0_radial_61505_53" cx="0" cy="0" r="1" gradientUnits="userSpaceOnUse" gradientTransform="translate(278 99) rotate(-90) scale(300)">
<stop stop-color="#22274F"/>
<stop offset="1" stop-opacity="0"/>
</radialGradient>
<radialGradient id="paint1_radial_61505_53" cx="0" cy="0" r="1" gradientUnits="userSpaceOnUse" gradientTransform="translate(98 99) rotate(-90) scale(300)">
<stop stop-color="#22274F"/>
<stop offset="1" stop-opacity="0"/>
</radialGradient>
<linearGradient id="paint2_linear_61505_53" x1="-67.9497" y1="58.9386" x2="436.115" y2="232.357" gradientUnits="userSpaceOnUse">
<stop stop-color="#22274F"/>
<stop offset="1" stop-color="#1B1936"/>
</linearGradient>
<linearGradient id="paint3_linear_61505_53" x1="95.1275" y1="217.565" x2="2.2383" y2="59.047" gradientUnits="userSpaceOnUse">
<stop stop-color="#22274F"/>
<stop offset="1" stop-color="#1B1936" stop-opacity="0"/>
</linearGradient>
<linearGradient id="paint4_linear_61505_53" x1="95.1275" y1="110.155" x2="2.23829" y2="-48.3627" gradientUnits="userSpaceOnUse">
<stop stop-color="#1B1936"/>
<stop offset="1" stop-color="#22274F" stop-opacity="0"/>
</linearGradient>
<linearGradient id="paint5_linear_61505_53" x1="95.1275" y1="-105.732" x2="281.421" y2="6.68574" gradientUnits="userSpaceOnUse">
<stop stop-opacity="0"/>
<stop offset="1"/>
</linearGradient>
<linearGradient id="paint6_linear_61505_53" x1="375" y1="174.833" x2="188.706" y2="62.4152" gradientUnits="userSpaceOnUse">
<stop stop-color="#22274F"/>
<stop offset="1" stop-color="#22274F"/>
</linearGradient>
<linearGradient id="paint7_linear_61505_53" x1="281.709" y1="110.155" x2="374.598" y2="-48.3627" gradientUnits="userSpaceOnUse">
<stop stop-color="#22274F"/>
<stop offset="1" stop-color="#22274F" stop-opacity="0"/>
<stop offset="1" stop-color="#1B1936" stop-opacity="0"/>
</linearGradient>
<linearGradient id="paint8_linear_61505_53" x1="188.418" y1="66.3552" x2="281.307" y2="224.873" gradientUnits="userSpaceOnUse">
<stop stop-color="#22274F"/>
<stop offset="1" stop-color="#1B1936" stop-opacity="0"/>
</linearGradient>
<clipPath id="clip0_61505_53">
<rect width="375" height="812" fill="white"/>
</clipPath>
</defs>
</svg>
